# Blender v3.1.2 OBJ File: ''
# www.blender.org
mtllib tyaji.mtl
o Cylinder_Cylinder.007
v 0.297636 1.270945 0.297635
v 0.147919 1.261338 0.423819
v -0.019577 1.232885 0.521619
v -0.198415 1.186680 0.587280
v -0.381724 1.124498 0.618276
v -0.562459 1.048730 0.613417
v -0.733674 0.962287 0.572889
v -0.888789 0.868490 0.498251
v -1.021844 0.770945 0.392370
v -1.127725 0.673400 0.259315
v -1.202363 0.579603 0.104200
v -1.242891 0.493160 -0.067015
v -1.247750 0.417391 -0.247750
v -1.216753 0.355210 -0.431058
v -1.151093 0.309005 -0.609897
v -1.053293 0.280552 -0.777393
v -0.927109 0.270945 -0.927109
v -0.777393 0.280552 -1.053292
v -0.609897 0.309005 -1.151093
v -0.431058 0.355210 -1.216753
v -0.247750 0.417391 -1.247750
v -0.067015 0.493160 -1.242891
v 0.104200 0.579603 -1.202363
v 0.259315 0.673400 -1.127725
v 0.392370 0.770945 -1.021844
v 0.498251 0.868490 -0.888789
v 0.572889 0.962287 -0.733673
v 0.613417 1.048730 -0.562459
v 0.618276 1.124498 -0.381724
v 0.587280 1.186680 -0.198415
v 0.521620 1.232885 -0.019577
v 0.423819 1.261338 0.147919
v 0.303013 1.257772 0.303013
v 0.153297 1.248165 0.429196
v -0.014199 1.219712 0.526997
v -0.193038 1.173507 0.592657
v -0.376346 1.111326 0.623653
v -0.557081 1.035557 0.618794
v -0.728296 0.949114 0.578267
v -0.883411 0.855317 0.503629
v -1.016466 0.757772 0.397748
v -1.122347 0.660227 0.264693
v -1.196985 0.566431 0.109578
v -1.237513 0.479987 -0.061637
v -1.242372 0.404219 -0.242372
v -1.211376 0.342037 -0.425681
v -1.145716 0.295832 -0.604519
v -1.047915 0.267380 -0.772015
v -0.921732 0.257772 -0.921732
v -0.772016 0.267380 -1.047915
v -0.604520 0.295832 -1.145716
v -0.425681 0.342037 -1.211376
v -0.242372 0.404219 -1.242372
v -0.061638 0.479987 -1.237513
v 0.109577 0.566430 -1.196985
v 0.264693 0.660227 -1.122347
v 0.397748 0.757772 -1.016466
v 0.503629 0.855317 -0.883411
v 0.578267 0.949114 -0.728296
v 0.618794 1.035557 -0.557081
v 0.623653 1.111326 -0.376347
v 0.592657 1.173507 -0.193038
v 0.526997 1.219712 -0.014199
v 0.429196 1.248165 0.153297
vt 1.000000 0.968750
vt 1.000000 1.000000
vt 0.968750 1.000000
vt 0.968750 0.968750
vt 0.937500 1.000000
vt 0.937500 0.968750
vt 0.906250 1.000000
vt 0.906250 0.968750
vt 0.875000 1.000000
vt 0.875000 0.968750
vt 0.843750 1.000000
vt 0.843750 0.968750
vt 0.812500 1.000000
vt 0.812500 0.968750
vt 0.781250 1.000000
vt 0.781250 0.968750
vt 0.750000 1.000000
vt 0.750000 0.968750
vt 0.718750 1.000000
vt 0.718750 0.968750
vt 0.687500 1.000000
vt 0.687500 0.968750
vt 0.656250 1.000000
vt 0.656250 0.968750
vt 0.625000 1.000000
vt 0.625000 0.968750
vt 0.593750 1.000000
vt 0.593750 0.968750
vt 0.562500 1.000000
vt 0.562500 0.968750
vt 0.531250 1.000000
vt 0.531250 0.968750
vt 0.500000 1.000000
vt 0.500000 0.968750
vt 0.468750 1.000000
vt 0.468750 0.968750
vt 0.437500 1.000000
vt 0.437500 0.968750
vt 0.406250 1.000000
vt 0.406250 0.968750
vt 0.375000 1.000000
vt 0.375000 0.968750
vt 0.343750 1.000000
vt 0.343750 0.968750
vt 0.312500 1.000000
vt 0.312500 0.968750
vt 0.281250 1.000000
vt 0.281250 0.968750
vt 0.250000 1.000000
vt 0.250000 0.968750
vt 0.218750 1.000000
vt 0.218750 0.968750
vt 0.187500 1.000000
vt 0.187500 0.968750
vt 0.156250 1.000000
vt 0.156250 0.968750
vt 0.125000 1.000000
vt 0.125000 0.968750
vt 0.093750 1.000000
vt 0.093750 0.968750
vt 0.062500 1.000000
vt 0.062500 0.968750
vt 0.031250 1.000000
vt 0.031250 0.968750
vt 0.000000 1.000000
vt 0.000000 0.968750
vn 0.5401 0.4976 0.6787
vn 0.3807 0.4785 0.7913
vn 0.2067 0.4410 0.8734
vn 0.0248 0.3865 0.9220
vn -0.1581 0.3172 0.9351
vn -0.3349 0.2357 0.9123
vn -0.4989 0.1451 0.8544
vn -0.6437 0.0490 0.7637
vn -0.7637 -0.0490 0.6437
vn -0.8544 -0.1451 0.4989
vn -0.9123 -0.2357 0.3349
vn -0.9351 -0.3172 0.1581
vn -0.9220 -0.3865 -0.0248
vn -0.8734 -0.4410 -0.2067
vn -0.7913 -0.4785 -0.3807
vn -0.6787 -0.4976 -0.5401
vn -0.5401 -0.4976 -0.6787
vn -0.3807 -0.4785 -0.7913
vn -0.2067 -0.4410 -0.8734
vn -0.0248 -0.3865 -0.9220
vn 0.1581 -0.3172 -0.9351
vn 0.3349 -0.2357 -0.9123
vn 0.4989 -0.1451 -0.8544
vn 0.6437 -0.0490 -0.7637
vn 0.7637 0.0490 -0.6437
vn 0.8544 0.1451 -0.4989
vn 0.9123 0.2357 -0.3349
vn 0.9351 0.3172 -0.1581
vn 0.9220 0.3865 0.0248
vn 0.8734 0.4410 0.2067
vn 0.7913 0.4785 0.3807
vn 0.6787 0.4976 0.5401
usemtl Material.005
s off
f 33/1/1 1/2/1 2/3/1 34/4/1
f 34/4/2 2/3/2 3/5/2 35/6/2
f 35/6/3 3/5/3 4/7/3 36/8/3
f 36/8/4 4/7/4 5/9/4 37/10/4
f 37/10/5 5/9/5 6/11/5 38/12/5
f 38/12/6 6/11/6 7/13/6 39/14/6
f 39/14/7 7/13/7 8/15/7 40/16/7
f 40/16/8 8/15/8 9/17/8 41/18/8
f 41/18/9 9/17/9 10/19/9 42/20/9
f 42/20/10 10/19/10 11/21/10 43/22/10
f 43/22/11 11/21/11 12/23/11 44/24/11
f 44/24/12 12/23/12 13/25/12 45/26/12
f 45/26/13 13/25/13 14/27/13 46/28/13
f 46/28/14 14/27/14 15/29/14 47/30/14
f 47/30/15 15/29/15 16/31/15 48/32/15
f 48/32/16 16/31/16 17/33/16 49/34/16
f 49/34/17 17/33/17 18/35/17 50/36/17
f 50/36/18 18/35/18 19/37/18 51/38/18
f 51/38/19 19/37/19 20/39/19 52/40/19
f 52/40/20 20/39/20 21/41/20 53/42/20
f 53/42/21 21/41/21 22/43/21 54/44/21
f 54/44/22 22/43/22 23/45/22 55/46/22
f 55/46/23 23/45/23 24/47/23 56/48/23
f 56/48/24 24/47/24 25/49/24 57/50/24
f 57/50/25 25/49/25 26/51/25 58/52/25
f 58/52/26 26/51/26 27/53/26 59/54/26
f 59/54/27 27/53/27 28/55/27 60/56/27
f 60/56/28 28/55/28 29/57/28 61/58/28
f 61/58/29 29/57/29 30/59/29 62/60/29
f 62/60/30 30/59/30 31/61/30 63/62/30
f 63/62/31 31/61/31 32/63/31 64/64/31
f 64/64/32 32/63/32 1/65/32 33/66/32
o Cylinder.001_Cylinder.008
v 0.331925 0.110863 0.107079
v 0.431767 0.123214 -0.061172
v 0.503657 0.159793 -0.239843
v 0.544833 0.219192 -0.422067
v 0.553713 0.299131 -0.600842
v 0.529954 0.396537 -0.769297
v 0.474470 0.507667 -0.920959
v 0.389394 0.628249 -1.049999
v 0.277995 0.753651 -1.151458
v 0.144553 0.879052 -1.221438
v -0.005803 0.999635 -1.257249
v -0.167294 1.110764 -1.257515
v -0.333716 1.208170 -1.222226
v -0.498673 1.288109 -1.152738
v -0.655824 1.347509 -1.051721
v -0.799132 1.384087 -0.923057
v -0.923089 1.396438 -0.771691
v -1.022930 1.384087 -0.603440
v -1.094821 1.347509 -0.424769
v -1.135997 1.288109 -0.242545
v -1.144876 1.208170 -0.063770
v -1.121117 1.110765 0.104685
v -1.065634 0.999635 0.256346
v -0.980557 0.879052 0.385386
v -0.869158 0.753651 0.486846
v -0.735716 0.628249 0.556826
v -0.585360 0.507667 0.592637
v -0.423869 0.396537 0.592903
v -0.257447 0.299131 0.557614
v -0.092491 0.219192 0.488126
v 0.064661 0.159793 0.387109
v 0.207969 0.123214 0.258445
v 0.339934 0.122515 0.112687
v 0.439776 0.134866 -0.055565
v 0.511666 0.171444 -0.234235
v 0.552842 0.230844 -0.416460
v 0.561722 0.310783 -0.595234
v 0.537963 0.408189 -0.763689
v 0.482479 0.519319 -0.915351
v 0.397403 0.639901 -1.044391
v 0.286004 0.765303 -1.145850
v 0.152562 0.890704 -1.215830
v 0.002206 1.011287 -1.251641
v -0.159286 1.122416 -1.251907
v -0.325707 1.219822 -1.216618
v -0.490664 1.299761 -1.147130
v -0.647815 1.359161 -1.046113
v -0.791123 1.395739 -0.917449
v -0.915080 1.408090 -0.766083
v -1.014921 1.395739 -0.597832
v -1.086812 1.359161 -0.419161
v -1.127988 1.299761 -0.236937
v -1.136867 1.219822 -0.058162
v -1.113108 1.122416 0.110293
v -1.057625 1.011287 0.261954
v -0.972548 0.890704 0.390994
v -0.861149 0.765303 0.492454
v -0.727707 0.639901 0.562434
v -0.577351 0.519318 0.598245
v -0.415860 0.408189 0.598511
v -0.249438 0.310783 0.563222
v -0.084482 0.230844 0.493734
v 0.072670 0.171444 0.392717
v 0.215978 0.134866 0.264053
vt 1.000000 0.968750
vt 1.000000 1.000000
vt 0.968750 1.000000
vt 0.968750 0.968750
vt 0.937500 1.000000
vt 0.937500 0.968750
vt 0.906250 1.000000
vt 0.906250 0.968750
vt 0.875000 1.000000
vt 0.875000 0.968750
vt 0.843750 1.000000
vt 0.843750 0.968750
vt 0.812500 1.000000
vt 0.812500 0.968750
vt 0.781250 1.000000
vt 0.781250 0.968750
vt 0.750000 1.000000
vt 0.750000 0.968750
vt 0.718750 1.000000
vt 0.718750 0.968750
vt 0.687500 1.000000
vt 0.687500 0.968750
vt 0.656250 1.000000
vt 0.656250 0.968750
vt 0.625000 1.000000
vt 0.625000 0.968750
vt 0.593750 1.000000
vt 0.593750 0.968750
vt 0.562500 1.000000
vt 0.562500 0.968750
vt 0.531250 1.000000
vt 0.531250 0.968750
vt 0.500000 1.000000
vt 0.500000 0.968750
vt 0.468750 1.000000
vt 0.468750 0.968750
vt 0.437500 1.000000
vt 0.437500 0.968750
vt 0.406250 1.000000
vt 0.406250 0.968750
vt 0.375000 1.000000
vt 0.375000 0.968750
vt 0.343750 1.000000
vt 0.343750 0.968750
vt 0.312500 1.000000
vt 0.312500 0.968750
vt 0.281250 1.000000
vt 0.281250 0.968750
vt 0.250000 1.000000
vt 0.250000 0.968750
vt 0.218750 1.000000
vt 0.218750 0.968750
vt 0.187500 1.000000
vt 0.187500 0.968750
vt 0.156250 1.000000
vt 0.156250 0.968750
vt 0.125000 1.000000
vt 0.125000 0.968750
vt 0.093750 1.000000
vt 0.093750 0.968750
vt 0.062500 1.000000
vt 0.062500 0.968750
vt 0.031250 1.000000
vt 0.031250 0.968750
vt 0.000000 1.000000
vt 0.000000 0.968750
vn 0.6807 -0.6397 0.3570
vn 0.7670 -0.6151 0.1827
vn 0.8238 -0.5669 0.0014
vn 0.8489 -0.4969 -0.1800
vn 0.8415 -0.4078 -0.3545
vn 0.8017 -0.3030 -0.5153
vn 0.7310 -0.1866 -0.6563
vn 0.6323 -0.0630 -0.7721
vn 0.5093 0.0630 -0.8583
vn 0.3667 0.1866 -0.9114
vn 0.2100 0.3030 -0.9296
vn 0.0453 0.4078 -0.9120
vn -0.1212 0.4969 -0.8593
vn -0.2830 0.5669 -0.7736
vn -0.4340 0.6151 -0.6582
vn -0.5683 0.6397 -0.5176
vn -0.6807 0.6397 -0.3570
vn -0.7670 0.6151 -0.1827
vn -0.8238 0.5669 -0.0014
vn -0.8489 0.4969 0.1800
vn -0.8415 0.4078 0.3545
vn -0.8017 0.3030 0.5153
vn -0.7310 0.1866 0.6563
vn -0.6323 0.0630 0.7721
vn -0.5093 -0.0630 0.8583
vn -0.3667 -0.1866 0.9114
vn -0.2100 -0.3030 0.9296
vn -0.0453 -0.4078 0.9120
vn 0.1212 -0.4969 0.8593
vn 0.2830 -0.5669 0.7736
vn 0.4340 -0.6151 0.6583
vn 0.5683 -0.6397 0.5176
usemtl Material.004
s off
f 97/67/33 65/68/33 66/69/33 98/70/33
f 98/70/34 66/69/34 67/71/34 99/72/34
f 99/72/35 67/71/35 68/73/35 100/74/35
f 100/74/36 68/73/36 69/75/36 101/76/36
f 101/76/37 69/75/37 70/77/37 102/78/37
f 102/78/38 70/77/38 71/79/38 103/80/38
f 103/80/39 71/79/39 72/81/39 104/82/39
f 104/82/40 72/81/40 73/83/40 105/84/40
f 105/84/41 73/83/41 74/85/41 106/86/41
f 106/86/42 74/85/42 75/87/42 107/88/42
f 107/88/43 75/87/43 76/89/43 108/90/43
f 108/90/44 76/89/44 77/91/44 109/92/44
f 109/92/45 77/91/45 78/93/45 110/94/45
f 110/94/46 78/93/46 79/95/46 111/96/46
f 111/96/47 79/95/47 80/97/47 112/98/47
f 112/98/48 80/97/48 81/99/48 113/100/48
f 113/100/49 81/99/49 82/101/49 114/102/49
f 114/102/50 82/101/50 83/103/50 115/104/50
f 115/104/51 83/103/51 84/105/51 116/106/51
f 116/106/52 84/105/52 85/107/52 117/108/52
f 117/108/53 85/107/53 86/109/53 118/110/53
f 118/110/54 86/109/54 87/111/54 119/112/54
f 119/112/55 87/111/55 88/113/55 120/114/55
f 120/114/56 88/113/56 89/115/56 121/116/56
f 121/116/57 89/115/57 90/117/57 122/118/57
f 122/118/58 90/117/58 91/119/58 123/120/58
f 123/120/59 91/119/59 92/121/59 124/122/59
f 124/122/60 92/121/60 93/123/60 125/124/60
f 125/124/61 93/123/61 94/125/61 126/126/61
f 126/126/62 94/125/62 95/127/62 127/128/62
f 127/128/63 95/127/63 96/129/63 128/130/63
f 128/130/64 96/129/64 65/131/64 97/132/64
