# Blender v3.1.2 OBJ File: ''
# www.blender.org
mtllib cube4.mtl
o Cube.003_Cube.015
v 58.705551 26.699677 -21.048340
v 55.913502 29.155762 -19.714600
v 56.148327 18.907373 -20.778959
v 60.593590 29.924316 -26.263922
v 60.016296 27.127544 -23.749170
v 59.903168 21.790953 -24.424255
v 59.220211 24.781246 -27.200188
v 60.349846 22.060049 -25.703060
v 59.857368 20.375633 -27.642134
v 52.221664 24.434351 -30.667419
v 55.076923 23.061592 -31.241287
v 52.262733 21.194475 -29.449188
v 54.348488 28.008352 -30.353901
v 54.925621 16.306032 -30.682140
v 51.205589 14.892919 -28.421131
v 50.087341 15.147053 -26.831604
v 60.253551 20.103731 -21.725521
v 58.704193 16.258694 -20.660225
v 58.498196 13.032439 -23.051613
v 59.129452 24.836760 -29.370445
v 57.821026 30.778275 -29.335394
v 50.184261 17.520376 -24.120878
v 50.216099 21.406853 -24.535286
v 51.548561 23.052614 -20.488880
v 52.345161 27.802902 -20.748287
v 49.656933 28.599335 -21.953955
v 54.832840 34.393532 -28.062319
v 50.471004 32.377529 -28.074389
v 52.707882 32.981274 -25.305788
v 52.210758 12.884258 -25.837318
v 55.025185 14.520737 -30.009972
v 55.105412 14.268431 -25.267645
v 58.179131 13.689633 -27.480677
v 58.229080 16.636463 -28.936850
v 59.491741 32.387985 -26.196074
v 58.911545 31.681618 -23.069544
v 56.568348 12.532159 -22.589891
v 55.154423 14.406864 -20.622189
v 52.564434 14.254557 -22.290979
v 50.192127 17.276304 -21.653187
v 49.912632 28.777544 -27.216877
v 50.056332 29.729906 -24.713020
v 57.362419 13.083105 -25.734140
v 57.623413 33.157440 -26.584587
v 53.128677 32.734375 -21.219189
vt 0.551960 0.762614
vt 0.565754 0.849691
vt 0.460064 0.840477
vt 0.583366 0.600072
vt 0.558404 0.669967
vt 0.475474 0.665742
vt 0.519530 0.569988
vt 0.481187 0.614523
vt 0.451227 0.560026
vt 0.514969 0.302205
vt 0.491410 0.376291
vt 0.363465 0.388939
vt 0.552750 0.357350
vt 0.462562 0.320347
vt 0.439840 0.383654
vt 0.175453 0.553307
vt 0.147894 0.591981
vt 0.366025 0.708680
vt 0.336510 0.723649
vt 0.343541 0.703318
vt 0.619846 0.544846
vt 0.602061 0.527061
vt 0.624623 0.549623
vt 0.136494 0.662776
vt 0.125457 0.627772
vt 0.490702 0.012537
vt 0.564719 0.004515
vt 0.574313 0.038014
vt 0.624704 0.202989
vt 0.600447 0.191892
vt 0.621277 0.110623
vt 0.186361 0.612900
vt 0.253074 0.526549
vt 0.256613 0.635330
vt 0.340181 0.563105
vt 0.337949 0.533315
vt 0.524653 0.515864
vt 0.408515 0.550000
vt 0.619719 0.603009
vt 0.620262 0.704928
vt 0.286325 0.692757
vt 0.263468 0.719840
vt 0.189238 0.697563
vt 0.148090 0.712123
vt 0.299320 0.749219
vt 0.618439 0.793439
vt 0.601666 0.776666
vt 0.625647 0.561055
vt 0.425629 0.032881
vt 0.475372 0.097027
vt 0.436420 0.075764
vt 0.569054 0.189067
vt 0.581012 0.226156
vt 0.317885 0.620030
vt 0.424976 0.748449
vt 0.451968 0.725579
vt 0.643480 0.555323
vt 0.667875 0.580884
vt 0.576458 0.987247
vt 0.600060 0.920583
vt 0.336902 0.532256
vt 0.244627 0.514011
vt 0.601107 0.276107
vt 0.652503 0.417564
vt 0.569468 0.738281
vt 0.594416 0.432764
vt 0.600311 0.278328
vt 0.623523 0.441672
vt 0.790661 0.667409
vn 0.3654 -0.0879 0.9267
vn 0.9832 -0.0433 0.1775
vn 0.9100 0.1696 -0.3784
vn -0.3378 -0.3350 -0.8796
vn -0.1210 0.1580 -0.9800
vn -0.5077 -0.0598 -0.8595
vn -0.8140 0.0420 -0.5794
vn 0.9101 -0.2827 0.3031
vn 0.7545 0.1699 -0.6339
vn -0.9996 0.0110 0.0261
vn -0.3784 0.1136 0.9187
vn -0.4157 0.8987 0.1399
vn 0.4396 -0.8965 -0.0551
vn 0.5125 -0.3874 -0.7663
vn 0.9885 0.1467 -0.0376
vn 0.8713 -0.2292 -0.4339
vn 0.9546 0.1985 0.2220
vn -0.7844 -0.6197 0.0267
vn -0.2182 -0.9747 -0.0482
vn 0.7298 -0.0711 -0.6799
vn 0.9444 -0.0058 0.3287
vn 0.9672 -0.2497 -0.0468
vn -0.7911 -0.6089 -0.0577
vn 0.3100 -0.5788 0.7542
vn -0.0084 0.0367 0.9993
vn 0.6024 0.2786 0.7480
vn 0.7420 0.3477 -0.5732
vn -0.6171 -0.7193 -0.3191
vn -1.0000 0.0086 0.0040
vn -0.9882 0.1529 -0.0015
vn -0.4836 -0.7318 -0.4803
vn 0.1639 0.2015 0.9657
vn 0.0398 -0.9988 0.0293
vn 0.7714 0.3300 0.5441
vn -0.9541 0.1751 0.2430
vn 0.4105 0.7041 -0.5795
vn -0.7704 0.6214 0.1431
vn 0.4720 -0.0832 -0.8777
vn -0.5028 -0.0564 -0.8625
vn -0.9970 -0.0594 -0.0504
vn 0.3615 -0.8813 0.3045
vn -0.1565 0.3441 -0.9258
vn -0.3890 -0.3435 -0.8548
vn 0.0753 -0.8174 -0.5711
vn 0.9017 -0.0730 0.4261
vn -0.3244 0.1409 0.9354
vn -0.3684 0.1462 0.9181
vn -0.7591 0.6404 0.1169
vn -0.6704 0.6208 0.4063
vn 0.3308 0.2136 -0.9192
vn 0.2380 0.0581 -0.9695
vn 0.4924 -0.2434 -0.8356
vn 0.6056 0.0118 -0.7956
vn 0.4697 -0.2880 -0.8345
vn -0.9012 -0.2068 0.3809
vn -0.9681 0.2477 -0.0386
vn -0.5860 -0.1006 -0.8040
vn -0.4950 0.3638 -0.7891
vn -0.9147 -0.1524 -0.3744
vn -0.9063 -0.1769 -0.3838
vn -0.9088 0.1601 -0.3854
vn -0.8361 -0.3976 0.3780
vn -0.7579 -0.5796 0.2995
vn 0.5606 0.6458 -0.5183
vn 0.0070 0.3373 -0.9414
vn -0.2922 -0.8068 -0.5135
vn 0.5647 -0.1220 0.8162
vn 0.8555 -0.4783 0.1982
vn 0.7712 -0.6314 -0.0807
vn 0.9923 0.1077 -0.0615
vn 0.3269 -0.5557 0.7644
vn 0.5517 0.0194 -0.8338
vn 0.4836 0.7318 0.4803
vn 0.8807 0.1464 0.4506
vn 0.2366 -0.0441 0.9706
vn 0.9738 0.2270 0.0155
vn -0.0705 -0.2587 0.9634
vn -0.5418 0.1485 0.8273
vn -0.0310 -0.1040 0.9941
vn -0.0959 -0.1750 0.9799
vn 0.3423 0.5779 0.7409
vn 0.3196 0.9098 0.2649
vn 0.2565 0.9228 0.2876
vn -0.4570 0.8838 0.1005
vn 0.2607 0.9205 0.2910
vn -0.3129 0.1040 0.9441
usemtl Material.010
s off
f 1/1/1 2/2/1 3/3/1
f 4/4/2 5/5/2 6/6/2
f 7/7/3 8/8/3 9/9/3
f 10/10/4 11/11/4 12/12/4
f 10/10/5 13/13/5 11/11/5
f 12/14/6 11/11/6 14/15/6
f 12/12/7 15/16/7 16/17/7
f 17/18/8 18/19/8 19/20/8
f 20/21/9 21/22/9 4/23/9
f 22/24/10 23/25/10 16/17/10
f 24/26/11 25/27/11 26/28/11
f 27/29/12 28/30/12 29/31/12
f 30/32/13 31/33/13 32/34/13
f 33/35/14 31/33/14 34/36/14
f 9/9/15 20/37/15 7/7/15
f 34/38/16 9/9/16 33/35/16
f 35/39/17 36/40/17 5/5/17
f 37/41/18 38/42/18 32/34/18
f 31/33/19 33/35/19 32/34/19
f 7/7/20 4/4/20 8/8/20
f 8/8/21 4/4/21 6/6/21
f 7/7/22 20/37/22 4/4/22
f 39/43/23 40/44/23 22/24/23
f 18/19/24 38/42/24 19/20/24
f 38/42/25 18/19/25 3/45/25
f 2/2/26 1/46/26 36/47/26
f 4/23/27 21/22/27 35/48/27
f 30/32/28 16/17/28 15/16/28
f 40/49/29 23/50/29 22/51/29
f 28/30/30 41/52/30 42/53/30
f 43/54/31 32/34/31 33/35/31
f 3/3/32 18/55/32 17/56/32
f 39/43/33 32/34/33 38/42/33
f 5/5/34 4/4/34 35/39/34
f 24/26/35 23/50/35 40/49/35
f 21/57/36 44/58/36 35/39/36
f 42/53/37 26/59/37 45/60/37
f 14/15/38 11/11/38 34/61/38
f 14/62/39 15/16/39 12/12/39
f 23/50/40 26/28/40 41/52/40
f 30/32/41 32/34/41 39/43/41
f 13/13/42 28/63/42 27/64/42
f 31/33/43 15/16/43 14/62/43
f 19/20/44 37/41/44 32/34/44
f 6/6/45 5/5/45 1/1/45
f 2/2/46 45/60/46 25/65/46
f 26/59/47 25/65/47 45/60/47
f 45/60/48 29/31/48 42/53/48
f 29/31/49 28/30/49 42/53/49
f 11/11/50 13/13/50 20/37/50
f 13/13/51 21/66/51 20/37/51
f 20/37/52 9/9/52 11/11/52
f 9/9/53 34/61/53 11/11/53
f 31/33/54 14/15/54 34/61/54
f 23/50/55 24/26/55 26/28/55
f 26/28/56 42/53/56 41/52/56
f 41/52/57 28/67/57 13/13/57
f 13/13/58 10/10/58 41/52/58
f 10/10/59 12/12/59 23/50/59
f 41/52/60 10/10/60 23/50/60
f 12/12/61 16/17/61 23/50/61
f 22/24/62 16/17/62 39/43/62
f 16/17/63 30/32/63 39/43/63
f 44/68/64 21/66/64 27/64/64
f 21/66/65 13/13/65 27/64/65
f 31/33/66 30/32/66 15/16/66
f 33/35/67 9/9/67 32/34/67
f 9/9/68 8/8/68 6/6/68
f 32/34/69 9/9/69 17/18/69
f 6/6/70 17/18/70 9/9/70
f 19/20/71 38/42/71 37/41/71
f 17/18/72 19/20/72 32/34/72
f 43/54/73 33/35/73 32/34/73
f 5/5/74 36/40/74 1/1/74
f 1/1/75 3/3/75 17/56/75
f 17/56/76 6/6/76 1/1/76
f 40/44/77 39/43/77 3/3/77
f 39/43/78 38/42/78 3/3/78
f 3/3/79 2/2/79 24/26/79
f 40/44/80 3/3/80 24/26/80
f 2/2/81 36/40/81 45/60/81
f 36/40/82 35/39/82 44/58/82
f 44/58/83 27/64/83 45/60/83
f 27/64/84 29/69/84 45/60/84
f 36/40/85 44/58/85 45/60/85
f 25/65/86 24/26/86 2/2/86
