# Blender v3.1.2 OBJ File: ''
# www.blender.org
mtllib box.mtl
o 立方体
v 1.000000 0.007070 -2.767563
v 1.000000 2.007065 -2.762853
v 1.000000 0.002360 -0.767569
v 1.000000 2.002355 -0.762859
v -1.000000 0.007070 -2.767563
v -1.000000 2.007065 -2.762853
v -1.000000 0.002360 -0.767569
v -1.000000 2.002355 -0.762859
v -3.000000 2.002355 -0.762859
v -3.000000 0.002360 -0.767569
v -3.000000 0.007070 -2.767563
v -3.000000 2.007065 -2.762853
v 1.000000 1.997645 1.237136
v 1.000000 -0.002350 1.232426
v -1.000000 -0.002350 1.232426
v -1.000000 1.997645 1.237136
v -1.000000 1.997645 1.237136
v -1.000000 -0.002350 1.232426
v -3.000000 1.997645 1.237136
v -3.000000 -0.002350 1.232426
v 1.000000 4.007060 -2.758143
v 1.000000 4.002350 -0.758149
v -1.000000 4.002350 -0.758149
v -1.000000 4.007060 -2.758143
v 1.000000 4.002350 -0.758149
v -1.000000 4.002350 -0.758149
v 1.000000 3.997640 1.241846
v -1.000000 3.997640 1.241846
v -1.000000 4.002350 -0.758149
v -1.000000 4.007060 -2.758143
v -3.000000 4.002350 -0.758149
v -3.000000 4.007060 -2.758143
v -3.000000 4.002350 -0.758149
v -1.000000 4.002350 -0.758149
v -3.000000 3.997640 1.241846
v -1.000000 3.997640 1.241846
vt 0.625000 0.000000
vt 0.375000 0.250000
vt 0.375000 0.000000
vt 0.625000 0.500000
vt 0.875000 0.500000
vt 0.875000 0.500000
vt 0.625000 0.750000
vt 0.625000 0.750000
vt 0.625000 0.750000
vt 0.375000 1.000000
vt 0.375000 0.750000
vt 0.375000 0.500000
vt 0.125000 0.750000
vt 0.125000 0.500000
vt 0.625000 0.500000
vt 0.625000 0.500000
vt 0.375000 0.750000
vt 0.375000 0.500000
vt 0.375000 0.500000
vt 0.625000 0.250000
vt 0.375000 0.500000
vt 0.375000 0.250000
vt 0.625000 0.250000
vt 0.625000 0.500000
vt 0.625000 0.500000
vt 0.375000 0.500000
vt 0.625000 0.500000
vt 0.625000 0.500000
vt 0.875000 0.500000
vt 0.625000 0.750000
vt 0.625000 0.250000
vt 0.625000 1.000000
vt 0.625000 1.000000
vt 0.625000 0.500000
vt 0.875000 0.500000
vt 0.625000 0.250000
vt 0.625000 0.500000
vt 0.625000 0.500000
vt 0.625000 0.500000
vt 0.625000 0.750000
vt 0.625000 0.500000
vt 0.625000 0.500000
vt 0.625000 0.500000
vt 0.125000 0.500000
vt 0.875000 0.750000
vt 0.625000 0.000000
vt 0.625000 0.250000
vn 1.0000 0.0000 0.0000
vn 0.0000 0.0024 -1.0000
vn 0.0000 -1.0000 -0.0024
vn 0.0000 -0.0024 1.0000
vn -1.0000 -0.0000 0.0000
vn 0.0000 1.0000 0.0024
usemtl マテリアル
s off
f 2/1/1 3/2/1 1/3/1
f 8/4/2 25/5/2 4/6/2
f 12/7/2 30/8/2 6/9/2
f 6/9/2 1/10/2 5/11/2
f 7/12/3 1/13/3 3/14/3
f 4/6/4 23/15/4 8/4/4
f 9/16/5 11/17/5 10/18/5
f 7/12/3 20/19/3 10/18/3
f 5/11/2 12/7/2 6/9/2
f 7/12/3 11/17/3 5/11/3
f 13/20/4 15/21/4 14/22/4
f 4/23/1 14/22/1 3/2/1
f 7/12/5 16/24/5 8/4/5
f 3/14/3 15/21/3 7/12/3
f 17/25/4 20/19/4 18/26/4
f 10/18/5 19/27/5 9/16/5
f 8/4/1 18/26/1 7/12/1
f 17/25/4 35/28/4 19/27/4
f 22/29/6 24/30/6 23/15/6
f 8/4/5 24/30/5 6/9/5
f 2/1/1 22/31/1 4/23/1
f 6/9/2 21/32/2 2/33/2
f 26/34/6 27/35/6 25/5/6
f 4/23/1 27/36/1 13/20/1
f 16/24/5 26/34/5 8/4/5
f 13/20/4 28/37/4 16/24/4
f 30/8/6 31/38/6 29/39/6
f 9/16/5 32/40/5 12/7/5
f 6/9/1 29/39/1 8/4/1
f 8/4/4 31/38/4 9/16/4
f 33/41/6 36/42/6 34/43/6
f 9/16/2 34/43/2 8/4/2
f 8/4/1 36/42/1 17/25/1
f 19/27/5 33/41/5 9/16/5
f 2/1/1 4/23/1 3/2/1
f 8/4/2 26/34/2 25/5/2
f 12/7/2 32/40/2 30/8/2
f 6/9/2 2/33/2 1/10/2
f 7/12/3 5/11/3 1/13/3
f 4/6/4 22/29/4 23/15/4
f 9/16/5 12/7/5 11/17/5
f 7/12/3 18/26/3 20/19/3
f 5/11/2 11/17/2 12/7/2
f 7/12/3 10/18/3 11/17/3
f 13/20/4 16/24/4 15/21/4
f 4/23/1 13/20/1 14/22/1
f 7/12/5 15/21/5 16/24/5
f 3/14/3 14/44/3 15/21/3
f 17/25/4 19/27/4 20/19/4
f 10/18/5 20/19/5 19/27/5
f 8/4/1 17/25/1 18/26/1
f 17/25/4 36/42/4 35/28/4
f 22/29/6 21/45/6 24/30/6
f 8/4/5 23/15/5 24/30/5
f 2/1/1 21/46/1 22/31/1
f 6/9/2 24/30/2 21/32/2
f 26/34/6 28/37/6 27/35/6
f 4/23/1 25/47/1 27/36/1
f 16/24/5 28/37/5 26/34/5
f 13/20/4 27/36/4 28/37/4
f 30/8/6 32/40/6 31/38/6
f 9/16/5 31/38/5 32/40/5
f 6/9/1 30/8/1 29/39/1
f 8/4/4 29/39/4 31/38/4
f 33/41/6 35/28/6 36/42/6
f 9/16/2 33/41/2 34/43/2
f 8/4/1 34/43/1 36/42/1
f 19/27/5 35/28/5 33/41/5
